# This file uses centimeters as units for non-parametric coordinates.

mtllib Torch2.mtl
g default
v -0.005000 0.250000 -0.000000
v -0.010000 0.250000 -0.000000
v 0.000000 0.250000 0.005000
v -0.005000 0.250000 0.005000
v -0.010000 0.250000 0.005000
v 0.000000 0.250000 0.010000
v -0.005000 0.250000 0.010000
v -0.010000 0.250000 0.010000
v -0.000000 0.187623 0.010000
v -0.005000 0.187623 0.010000
v -0.010000 0.187623 0.010000
v -0.000000 0.000000 0.010000
v -0.005000 0.000000 0.010000
v -0.010000 0.000000 0.010000
v -0.000000 0.000000 0.005000
v -0.005000 0.000000 0.005000
v -0.010000 0.000000 0.005000
v 0.000000 0.000000 0.000000
v -0.005000 0.000000 -0.000000
v -0.010000 0.000000 -0.000000
v -0.010000 0.187623 0.005000
v -0.010000 0.187623 -0.000000
v 0.000000 0.250000 0.027057
v -0.005000 0.250000 0.027057
v -0.005000 0.187623 0.027057
v 0.000000 0.187623 0.027057
v -0.018529 0.250000 0.018529
v -0.018529 0.187623 0.018529
v -0.027057 0.187623 0.005000
v -0.027057 0.250000 0.005000
v -0.027057 0.187623 -0.000000
v -0.027057 0.250000 -0.000000
v 0.000000 0.250000 -0.005000
v 0.000000 0.250000 -0.010000
v -0.005000 0.250000 -0.005000
v -0.005000 0.250000 -0.010000
v -0.010000 0.250000 -0.005000
v -0.010000 0.250000 -0.010000
v -0.010000 0.187623 -0.005000
v -0.010000 0.187623 -0.010000
v -0.010000 0.000000 -0.005000
v -0.010000 0.000000 -0.010000
v -0.005000 0.000000 -0.005000
v -0.005000 0.000000 -0.010000
v 0.000000 0.000000 -0.005000
v 0.000000 0.000000 -0.010000
v -0.005000 0.187623 -0.010000
v 0.000000 0.187623 -0.010000
v -0.027057 0.250000 -0.005000
v -0.027057 0.187623 -0.005000
v -0.018529 0.250000 -0.018529
v -0.018529 0.187623 -0.018529
v -0.005000 0.187623 -0.027057
v -0.005000 0.250000 -0.027057
v 0.000000 0.187623 -0.027057
v 0.000000 0.250000 -0.027057
v 0.000000 0.250000 0.000000
v 0.005000 0.250000 -0.000000
v 0.005000 0.250000 0.005000
v 0.005000 0.250000 0.010000
v 0.010000 0.250000 -0.000000
v 0.010000 0.250000 0.005000
v 0.010000 0.250000 0.010000
v 0.010000 0.187623 0.000000
v 0.010000 0.187623 0.005000
v 0.010000 0.187623 0.010000
v 0.010000 0.000000 0.000000
v 0.010000 0.000000 0.005000
v 0.010000 0.000000 0.010000
v 0.005000 0.000000 0.000000
v 0.005000 0.000000 0.005000
v 0.005000 0.000000 0.010000
v 0.005000 0.187623 0.010000
v 0.027057 0.250000 -0.000000
v 0.027057 0.250000 0.005000
v 0.027057 0.187623 0.005000
v 0.027057 0.187623 -0.000000
v 0.018529 0.250000 0.018529
v 0.018529 0.187623 0.018529
v 0.005000 0.187623 0.027057
v 0.005000 0.250000 0.027057
v 0.005000 0.250000 -0.005000
v 0.010000 0.250000 -0.005000
v 0.005000 0.250000 -0.010000
v 0.010000 0.250000 -0.010000
v 0.005000 0.187623 -0.010000
v 0.010000 0.187623 -0.010000
v 0.005000 0.000000 -0.010000
v 0.010000 0.000000 -0.010000
v 0.005000 0.000000 -0.005000
v 0.010000 0.000000 -0.005000
v 0.010000 0.187623 -0.005000
v 0.005000 0.250000 -0.027057
v 0.005000 0.187623 -0.027057
v 0.018529 0.250000 -0.018529
v 0.018529 0.187623 -0.018529
v 0.027057 0.187623 -0.005000
v 0.027057 0.250000 -0.005000
vt 0.163749 0.022384
vt 0.183438 0.022384
vt 0.183438 0.761184
vt 0.163749 0.761184
vt 0.144061 0.022384
vt 0.144061 0.761184
vt 0.124372 0.761184
vt 0.124372 0.022384
vt 0.104684 0.761184
vt 0.104684 0.022384
vt 0.511839 0.022384
vt 0.531528 0.022384
vt 0.531528 0.268006
vt 0.511839 0.268006
vt 0.584799 0.022384
vt 0.584799 0.268006
vt 0.492151 0.268006
vt 0.492151 0.022384
vt 0.618383 0.268006
vt 0.618383 0.022384
vt 0.438879 0.268006
vt 0.438879 0.022384
vt 0.405296 0.022384
vt 0.405296 0.268006
vt 0.747959 0.516974
vt 0.728270 0.516974
vt 0.728270 0.271352
vt 0.747959 0.271352
vt 0.674999 0.516974
vt 0.674999 0.271352
vt 0.767647 0.271352
vt 0.767647 0.516974
vt 0.641415 0.271352
vt 0.641415 0.516974
vt 0.820919 0.271352
vt 0.820919 0.516974
vt 0.854502 0.516974
vt 0.854502 0.271352
vt 0.313972 0.761184
vt 0.294284 0.761184
vt 0.294284 0.022384
vt 0.313972 0.022384
vt 0.274595 0.761184
vt 0.274595 0.022384
vt 0.333661 0.022384
vt 0.333661 0.761184
vt 0.353349 0.022384
vt 0.353349 0.761184
vt 0.529729 0.377895
vt 0.529729 0.397584
vt 0.510041 0.397584
vt 0.510041 0.377895
vt 0.549418 0.377895
vt 0.549418 0.397584
vt 0.529729 0.417272
vt 0.510041 0.417272
vt 0.490352 0.397584
vt 0.490352 0.377895
vt 0.510041 0.358207
vt 0.529729 0.358207
vt 0.549418 0.358207
vt 0.569106 0.377895
vt 0.569106 0.397584
vt 0.549418 0.417272
vt 0.529729 0.484439
vt 0.510041 0.484439
vt 0.490352 0.417272
vt 0.423186 0.397584
vt 0.423186 0.377895
vt 0.490352 0.358207
vt 0.510041 0.338519
vt 0.529729 0.338519
vt 0.549418 0.338519
vt 0.569106 0.358207
vt 0.636272 0.377895
vt 0.636272 0.397584
vt 0.569106 0.417272
vt 0.549418 0.484439
vt 0.456769 0.450855
vt 0.423186 0.358207
vt 0.490352 0.338519
vt 0.510041 0.271352
vt 0.529729 0.271352
vt 0.549418 0.271352
vt 0.569106 0.338519
vt 0.636272 0.358207
vt 0.602689 0.450855
vt 0.456769 0.304935
vt 0.602689 0.304935
vt 0.160437 0.843283
vt 0.140748 0.843283
vt 0.140748 0.823595
vt 0.160437 0.823595
vt 0.121060 0.843283
vt 0.121060 0.823595
vt 0.140748 0.803907
vt 0.160437 0.803907
vt 0.180125 0.823595
vt 0.180125 0.843283
vt 0.121060 0.803907
vt 0.140748 0.784218
vt 0.160437 0.784218
vt 0.180125 0.803907
vt 0.199813 0.823595
vt 0.199813 0.843283
vt 0.121060 0.784218
vt 0.140748 0.764530
vt 0.160437 0.764530
vt 0.180125 0.784218
vt 0.199813 0.803907
vt 0.121060 0.764530
vt 0.180125 0.764530
vt 0.199813 0.784218
vt 0.199813 0.764530
vt 0.291811 0.910450
vt 0.311500 0.910450
vt 0.311500 0.977616
vt 0.291811 0.977616
vt 0.331188 0.910450
vt 0.331188 0.977616
vt 0.272123 0.910450
vt 0.238540 0.944033
vt 0.350877 0.910450
vt 0.384460 0.944033
vt 0.272123 0.890761
vt 0.204957 0.890761
vt 0.350877 0.890761
vt 0.418043 0.890761
vt 0.272123 0.871073
vt 0.204957 0.871073
vt 0.350877 0.871073
vt 0.418043 0.871073
vt 0.272123 0.851385
vt 0.204957 0.851385
vt 0.350877 0.851385
vt 0.418043 0.851385
vt 0.272123 0.831696
vt 0.238540 0.798113
vt 0.350877 0.831696
vt 0.384460 0.798113
vt 0.291811 0.831696
vt 0.291811 0.764530
vt 0.331188 0.831696
vt 0.331188 0.764530
vt 0.311500 0.831696
vt 0.311500 0.764530
vt 0.379239 0.268006
vt 0.359551 0.268006
vt 0.359551 0.022384
vt 0.379239 0.022384
vt 0.398928 0.022384
vt 0.398928 0.268006
vt 0.058942 0.761184
vt 0.039253 0.761184
vt 0.039253 0.022384
vt 0.058942 0.022384
vt 0.019565 0.761184
vt 0.019565 0.022384
vt 0.078630 0.022384
vt 0.078630 0.761184
vt 0.098319 0.022384
vt 0.098319 0.761184
vt 0.209328 0.761184
vt 0.189640 0.761184
vt 0.189640 0.022384
vt 0.209328 0.022384
vt 0.229016 0.761184
vt 0.229016 0.022384
vt 0.248705 0.022384
vt 0.248705 0.761184
vt 0.268393 0.022384
vt 0.268393 0.761184
vt 0.643909 0.268006
vt 0.624220 0.268006
vt 0.624220 0.022384
vt 0.643909 0.022384
vt 0.663597 0.022384
vt 0.663597 0.268006
vn 0.000000 1.000000 0.000000
vn 0.000000 1.000000 0.000000
vn 0.000000 1.000000 0.000000
vn 0.000000 1.000000 0.000000
vn 0.000000 1.000000 0.000000
vn 0.000000 1.000000 0.000000
vn 0.000000 1.000000 0.000000
vn 0.000000 1.000000 0.000000
vn 0.000000 1.000000 0.000000
vn 0.000000 0.000000 1.000000
vn -0.418127 0.000000 0.908389
vn -0.418127 0.000000 0.908389
vn 0.000000 0.000000 1.000000
vn -0.533288 0.000000 0.845934
vn -0.533288 0.000000 0.845934
vn 0.000000 0.000000 1.000000
vn 0.000000 0.000000 1.000000
vn 0.000000 0.000000 1.000000
vn 0.000000 0.000000 1.000000
vn 0.000000 0.000000 1.000000
vn 0.000000 0.000000 1.000000
vn 0.000000 -1.000000 0.000000
vn 0.000000 -1.000000 0.000000
vn 0.000000 -1.000000 0.000000
vn 0.000000 -1.000000 0.000000
vn 0.000000 -1.000000 0.000000
vn 0.000000 -1.000000 0.000000
vn 0.000000 -1.000000 0.000000
vn 0.000000 -1.000000 0.000000
vn 0.000000 -1.000000 0.000000
vn -1.000000 0.000000 0.000000
vn -1.000000 0.000000 0.000000
vn -1.000000 0.000000 0.000000
vn -1.000000 0.000000 0.000000
vn -1.000000 0.000000 0.000000
vn -1.000000 0.000000 0.000000
vn -0.908389 0.000000 0.418127
vn -0.845933 0.000000 0.533288
vn -0.845933 0.000000 0.533288
vn -0.908389 0.000000 0.418127
vn -1.000000 0.000000 0.000000
vn -1.000000 0.000000 0.000000
vn 0.000000 1.000000 0.000000
vn 0.000000 1.000000 0.000000
vn 0.000000 -1.000000 -0.000001
vn 0.000000 -1.000000 -0.000000
vn 0.000000 -1.000000 -0.000000
vn 0.000000 -1.000000 -0.000001
vn 0.000000 1.000000 0.000000
vn 0.000000 -1.000000 -0.000000
vn 0.000000 -1.000000 -0.000000
vn 0.000000 -1.000000 0.000000
vn 0.000000 -1.000000 0.000000
vn 0.000000 1.000000 0.000000
vn 0.000000 -1.000000 0.000000
vn 0.000000 -1.000000 0.000000
vn 0.000000 1.000000 0.000000
vn 0.000000 1.000000 0.000000
vn 0.000000 1.000000 0.000000
vn 0.000000 1.000000 0.000000
vn 0.000000 1.000000 0.000000
vn 0.000000 1.000000 0.000000
vn 0.000000 1.000000 0.000000
vn 0.000000 1.000000 0.000000
vn 0.000000 1.000000 0.000000
vn 0.000000 1.000000 0.000000
vn -1.000000 0.000000 0.000000
vn -0.908389 0.000000 -0.418127
vn -0.908389 0.000000 -0.418127
vn -1.000000 0.000000 0.000000
vn -0.845933 0.000000 -0.533288
vn -0.845933 0.000000 -0.533288
vn -1.000000 0.000000 0.000000
vn -1.000000 0.000000 0.000000
vn -1.000000 0.000000 0.000000
vn -1.000000 0.000000 0.000000
vn -1.000000 0.000000 0.000000
vn -1.000000 0.000000 0.000000
vn 0.000000 -1.000000 0.000000
vn 0.000000 -1.000000 0.000000
vn 0.000000 -1.000000 0.000000
vn 0.000000 -1.000000 0.000000
vn 0.000000 -1.000000 0.000000
vn 0.000000 -1.000000 0.000000
vn 0.000000 -1.000000 0.000000
vn 0.000000 -1.000000 0.000000
vn 0.000000 -1.000000 0.000000
vn 0.000000 0.000000 -1.000000
vn 0.000000 0.000000 -1.000000
vn 0.000000 0.000000 -1.000000
vn 0.000000 0.000000 -1.000000
vn 0.000000 0.000000 -1.000000
vn 0.000000 0.000000 -1.000000
vn -0.418127 0.000000 -0.908389
vn -0.533288 0.000000 -0.845934
vn -0.533288 0.000000 -0.845934
vn -0.418127 0.000000 -0.908389
vn 0.000000 0.000000 -1.000000
vn 0.000000 0.000000 -1.000000
vn 0.000000 1.000000 0.000000
vn 0.000000 1.000000 0.000000
vn 0.000000 -1.000000 0.000000
vn 0.000000 -1.000000 0.000000
vn 0.000000 -1.000000 0.000000
vn 0.000000 -1.000000 0.000000
vn 0.000000 1.000000 0.000000
vn 0.000000 -1.000000 0.000001
vn 0.000000 -1.000000 0.000001
vn 0.000000 -1.000000 0.000001
vn 0.000000 -1.000000 0.000001
vn 0.000000 1.000000 0.000000
vn 0.000000 -1.000000 0.000000
vn 0.000000 -1.000000 0.000000
vn 0.000000 1.000000 0.000000
vn 0.000000 1.000000 0.000000
vn 0.000000 1.000000 0.000000
vn 0.000000 1.000000 0.000000
vn 0.000000 1.000000 0.000000
vn 0.000000 1.000000 0.000000
vn 0.000000 1.000000 0.000000
vn 0.000000 1.000000 0.000000
vn 0.000000 1.000000 0.000000
vn 0.000000 1.000000 0.000000
vn 1.000000 0.000000 0.000000
vn 0.908389 0.000000 0.418127
vn 0.908389 0.000000 0.418127
vn 1.000000 0.000000 0.000000
vn 0.845933 0.000000 0.533288
vn 0.845933 0.000000 0.533288
vn 1.000000 0.000000 0.000000
vn 1.000000 0.000000 0.000000
vn 1.000000 0.000000 0.000000
vn 1.000000 0.000000 0.000000
vn 1.000000 0.000000 0.000000
vn 1.000000 0.000000 0.000000
vn 0.000000 -1.000000 0.000000
vn 0.000000 -1.000000 0.000000
vn 0.000000 -1.000000 0.000000
vn 0.000000 -1.000000 0.000000
vn 0.000000 -1.000000 0.000000
vn 0.000000 -1.000000 0.000000
vn 0.000000 -1.000000 0.000000
vn 0.000000 -1.000000 0.000000
vn 0.000000 -1.000000 0.000000
vn 0.000000 0.000000 1.000000
vn 0.000000 0.000000 1.000000
vn 0.000000 0.000000 1.000000
vn 0.000000 0.000000 1.000000
vn 0.000000 0.000000 1.000000
vn 0.000000 0.000000 1.000000
vn 0.418127 0.000000 0.908389
vn 0.533288 0.000000 0.845934
vn 0.533288 0.000000 0.845934
vn 0.418127 0.000000 0.908389
vn 0.000000 0.000000 1.000000
vn 0.000000 0.000000 1.000000
vn 0.000000 1.000000 0.000000
vn 0.000000 1.000000 0.000000
vn 0.000000 -1.000000 0.000000
vn 0.000000 -1.000000 0.000000
vn 0.000000 -1.000000 0.000000
vn 0.000000 -1.000000 0.000000
vn 0.000000 1.000000 0.000000
vn 0.000000 -1.000000 -0.000001
vn 0.000000 -1.000000 -0.000001
vn 0.000000 -1.000000 -0.000001
vn 0.000000 -1.000000 -0.000001
vn 0.000000 1.000000 0.000000
vn 0.000000 -1.000000 -0.000000
vn 0.000000 -1.000000 -0.000000
vn 0.000000 1.000000 0.000000
vn 0.000000 1.000000 0.000000
vn 0.000000 1.000000 0.000000
vn 0.000000 1.000000 0.000000
vn 0.000000 1.000000 0.000000
vn 0.000000 1.000000 0.000000
vn 0.000000 1.000000 0.000000
vn 0.000000 1.000000 0.000000
vn 0.000000 1.000000 0.000000
vn 0.000000 1.000000 0.000000
vn -0.000000 0.000000 -1.000000
vn 0.418127 0.000000 -0.908389
vn 0.418127 0.000000 -0.908389
vn -0.000000 0.000000 -1.000000
vn 0.533288 0.000000 -0.845934
vn 0.533288 0.000000 -0.845934
vn 0.000000 0.000000 -1.000000
vn 0.000000 0.000000 -1.000000
vn 0.000000 0.000000 -1.000000
vn 0.000000 0.000000 -1.000000
vn 0.000000 0.000000 -1.000000
vn 0.000000 0.000000 -1.000000
vn 0.000000 -1.000000 0.000000
vn 0.000000 -1.000000 0.000000
vn 0.000000 -1.000000 0.000000
vn 0.000000 -1.000000 0.000000
vn 0.000000 -1.000000 0.000000
vn 0.000000 -1.000000 0.000000
vn 0.000000 -1.000000 0.000000
vn 0.000000 -1.000000 0.000000
vn 0.000000 -1.000000 0.000000
vn 1.000000 0.000000 0.000000
vn 1.000000 0.000000 0.000000
vn 1.000000 0.000000 0.000000
vn 1.000000 0.000000 0.000000
vn 1.000000 0.000000 0.000000
vn 1.000000 0.000000 0.000000
vn 0.908389 0.000000 -0.418127
vn 0.845933 0.000000 -0.533288
vn 0.845933 0.000000 -0.533288
vn 0.908389 0.000000 -0.418127
vn 1.000000 0.000000 0.000000
vn 1.000000 0.000000 0.000000
vn 0.000000 1.000000 0.000000
vn 0.000000 1.000000 0.000000
vn 0.000000 -1.000000 0.000001
vn 0.000000 -1.000000 0.000000
vn 0.000000 -1.000000 0.000000
vn 0.000000 -1.000000 0.000001
vn 0.000000 1.000000 0.000000
vn 0.000000 -1.000000 0.000000
vn 0.000000 -1.000000 0.000000
vn 0.000000 -1.000000 0.000000
vn 0.000000 -1.000000 0.000000
vn 0.000000 1.000000 0.000000
vn 0.000000 -1.000000 0.000000
vn 0.000000 -1.000000 0.000000
vn 0.000000 1.000000 0.000000
s 1
g pCube11
usemtl initialShadingGroup
f 57/49/1 1/50/2 4/51/3 3/52/4
f 1/50/2 2/55/5 5/56/6 4/51/3
f 3/52/4 4/51/3 7/57/7 6/58/8
f 4/51/3 5/56/6 8/67/9 7/57/7
s 2
f 23/147/10 24/148/11 25/149/12 26/150/13
f 24/19/11 27/16/14 28/15/15 25/20/12
s 3
f 9/153/16 10/154/17 13/155/18 12/156/19
f 10/154/17 11/157/20 14/158/21 13/155/18
s 4
f 12/90/22 13/91/23 16/92/24 15/93/25
f 13/91/23 14/94/26 17/95/27 16/92/24
f 15/93/25 16/92/24 19/96/28 18/97/29
f 16/92/24 17/95/27 20/100/30 19/96/28
s 5
f 17/1/31 14/2/32 11/3/33 21/4/34
f 20/5/35 17/1/31 21/4/34 22/6/36
s 6
f 29/12/37 28/15/38 27/16/39 30/13/40
f 31/11/41 29/12/37 30/13/40 32/14/42
s 1
f 6/58/8 7/57/7 24/68/43 23/69/44
s 7
f 10/115/45 9/116/46 26/117/47 25/118/48
s 1
f 7/57/7 8/67/9 27/79/49 24/68/43
s 7
f 11/121/50 10/115/45 25/118/48 28/122/51
f 21/125/52 11/121/50 28/122/51 29/126/53
s 1
f 8/67/9 5/56/6 30/66/54 27/79/49
s 7
f 22/129/55 21/125/52 29/126/53 31/130/56
s 1
f 5/56/6 2/55/5 32/65/57 30/66/54
s 8
f 57/49/58 33/53/59 35/54/60 1/50/61
f 33/53/59 34/62/62 36/63/63 35/54/60
f 1/50/61 35/54/60 37/64/64 2/55/65
f 35/54/60 36/63/63 38/77/66 37/64/64
s 9
f 32/14/67 49/17/68 50/18/69 31/11/70
f 49/17/68 51/21/71 52/22/72 50/18/69
s 10
f 22/6/73 39/7/74 41/8/75 20/5/76
f 39/7/74 40/9/77 42/10/78 41/8/75
s 11
f 20/100/79 41/106/80 43/101/81 19/96/82
f 41/106/80 42/111/83 44/107/84 43/101/81
f 19/96/82 43/101/81 45/102/85 18/97/86
f 43/101/81 44/107/84 46/108/87 45/102/85
s 12
f 44/163/88 42/164/89 40/165/90 47/166/91
f 46/167/92 44/163/88 47/166/91 48/168/93
s 13
f 53/23/94 52/22/95 51/21/96 54/24/97
f 55/173/98 53/174/94 54/175/97 56/176/99
s 8
f 2/55/65 37/64/64 49/78/100 32/65/101
s 14
f 39/133/102 22/129/103 31/130/104 50/134/105
s 8
f 37/64/64 38/77/66 51/87/106 49/78/100
s 14
f 40/137/107 39/133/102 50/134/105 52/138/108
f 47/141/109 40/137/107 52/138/108 53/142/110
s 8
f 38/77/66 36/63/63 54/76/111 51/87/106
s 14
f 48/145/112 47/141/109 53/142/110 55/146/113
s 8
f 36/63/63 34/62/62 56/75/114 54/76/111
s 15
f 57/49/115 3/52/116 59/59/117 58/60/118
f 3/52/116 6/58/119 60/70/120 59/59/117
f 58/60/118 59/59/117 62/71/121 61/72/122
f 59/59/117 60/70/120 63/81/123 62/71/121
s 16
f 74/25/124 75/26/125 76/27/126 77/28/127
f 75/26/125 78/29/128 79/30/129 76/27/126
s 17
f 64/39/130 65/40/131 68/41/132 67/42/133
f 65/40/131 66/43/134 69/44/135 68/41/132
s 18
f 67/110/136 68/104/137 71/98/138 70/103/139
f 68/104/137 69/105/140 72/99/141 71/98/138
f 70/103/139 71/98/138 15/93/142 18/97/143
f 71/98/138 72/99/141 12/90/144 15/93/142
s 19
f 72/159/145 69/161/146 66/162/147 73/160/148
f 12/156/149 72/159/145 73/160/148 9/153/150
s 20
f 80/33/151 79/30/152 78/29/153 81/34/154
f 26/150/155 80/151/151 81/152/154 23/147/156
s 15
f 61/72/122 62/71/121 75/82/157 74/83/158
s 21
f 65/127/159 64/131/160 77/132/161 76/128/162
s 15
f 62/71/121 63/81/123 78/88/163 75/82/157
s 21
f 66/123/164 65/127/159 76/128/162 79/124/165
f 73/119/166 66/123/164 79/124/165 80/120/167
s 15
f 63/81/123 60/70/120 81/80/168 78/88/163
s 21
f 9/116/169 73/119/166 80/120/167 26/117/170
s 15
f 60/70/120 6/58/119 23/69/171 81/80/168
s 22
f 57/49/172 58/60/173 82/61/174 33/53/175
f 58/60/173 61/72/176 83/73/177 82/61/174
f 33/53/175 82/61/174 84/74/178 34/62/179
f 82/61/174 83/73/177 85/85/180 84/74/178
s 23
f 56/176/181 93/177/182 94/178/183 55/173/184
f 93/37/182 95/36/185 96/35/186 94/38/183
s 24
f 48/168/187 86/169/188 88/170/189 46/167/190
f 86/169/188 87/171/191 89/172/192 88/170/189
s 25
f 46/108/193 88/112/194 90/109/195 45/102/196
f 88/112/194 89/114/197 91/113/198 90/109/195
f 45/102/196 90/109/195 70/103/199 18/97/200
f 90/109/195 91/113/198 67/110/201 70/103/199
s 26
f 91/45/202 89/47/203 87/48/204 92/46/205
f 67/42/206 91/45/202 92/46/205 64/39/207
s 27
f 97/31/208 96/35/209 95/36/210 98/32/211
f 77/28/212 97/31/208 98/32/211 74/25/213
s 22
f 34/62/179 84/74/178 93/86/214 56/75/215
s 28
f 86/143/216 48/145/217 55/146/218 94/144/219
s 22
f 84/74/178 85/85/180 95/89/220 93/86/214
s 28
f 87/139/221 86/143/216 94/144/219 96/140/222
f 92/135/223 87/139/221 96/140/222 97/136/224
s 22
f 85/85/180 83/73/177 98/84/225 95/89/220
s 28
f 64/131/226 92/135/223 97/136/224 77/132/227
s 22
f 83/73/177 61/72/176 74/83/228 98/84/225
